<?xml version="1.0" encoding="UTF-8"?><svg xmlns="http://www.w3.org/2000/svg" xmlns:xlink="http://www.w3.org/1999/xlink" version="1.1" x="0px" y="0px" viewBox="0 0 32 32" xml:space="preserve"><g id="stiches"><g id="Shopping_10_137_"><path fill="#FFF" d="M16 2.115C8.332 2.115 2.115 8.332 2.115 16S8.332 29.885 16 29.885 29.885 23.668 29.885 16 23.668 2.115 16 2.115z"/><path fill="#CCC" d="M16 30.259C8.137 30.259 1.74 23.863 1.74 16S8.137 1.74 16 1.74 30.259 8.137 30.259 16c0 7.863-6.396 14.259-14.259 14.259zm0-27.768C8.551 2.491 2.49 8.551 2.49 16S8.551 29.509 16 29.509 29.509 23.449 29.509 16 23.449 2.491 16 2.491z"/></g><path fill="#E21B1B" d="M16 0H15.986h-.031-.037H15.833c-.238.002-.476.01-.712.023h-.027l-.048.003.044.749c.304-.016.606-.025.91-.025V0zm-1.896.111a15.35 15.35 0 0 0-.486.065h-.002l-.005.001h-.002l-.004.001h-.003l-.004.001-.003.001h-.003l-.009.001h-.001l-.005.001h-.002l-.005.001h-.001l-.005.001h-.001c-.133.02-.266.042-.398.066l.132.738c.296-.053.594-.097.896-.133l-.089-.744zm-1.869.335c-.172.042-.344.086-.514.133l-.006.002h-.001l-.017.005h-.001l-.004.001-.003.001-.004.001-.003.001-.003.001-.005.001-.002.001-.007.002h-.001l-.006.002-.002.001-.005.001-.002.001h-.003-.001c-.109.031-.218.063-.326.096l.219.717c.287-.088.579-.167.873-.238l-.176-.729zM10.419 1c-.298.111-.591.23-.88.358l.303.686c.275-.122.555-.235.838-.341L10.419 1zm-1.737.768c-.156.08-.311.164-.465.249a.02.02 0 0 0-.006.004l-.019.01h-.001l-.005.004h-.001l-.006.004a.054.054 0 0 0-.013.007l-.001.001-.005.002-.002.001-.004.003-.002.001-.005.003-.001.001a.014.014 0 0 0-.006.002l-.002.001-.003.003-.003.002-.004.001-.003.001-.003.003-.002.001-.006.003-.003.001a.002.002 0 0 1-.002.002l-.003.002-.002.001-.003.002-.004.002-.003.002-.002.001-.008.004-.001.001-.004.002-.003.001-.002.002-.002.001-.004.003h-.001l-.015.008h-.001c-.001.002-.002.003-.004.003l-.002.001a.014.014 0 0 1-.004.003l-.001.001a.008.008 0 0 0-.004.002l-.01.005-.001.001a.008.008 0 0 1-.004.002l-.001.001-.005.003-.001.001a.186.186 0 0 0-.019.011h-.001l-.005.003-.026.015-.032.018a.226.226 0 0 0-.02.013l-.032.018-.028.017.383.645c.259-.154.523-.3.792-.438l-.344-.667zm-1.633.968c-.063.043-.127.086-.189.13l-.001.001a.022.022 0 0 0-.005.003l-.002.002-.003.002-.003.002-.003.002a.018.018 0 0 0-.005.004l-.002.001-.004.003-.001.001-.005.002h-.001c-.185.131-.367.265-.547.402l.456.595c.239-.183.484-.36.735-.529l-.42-.621zM5.541 3.891c-.24.207-.473.421-.7.642l.523.537c.217-.21.439-.414.668-.611l-.491-.568zm-1.36 1.325c-.213.234-.42.474-.619.72l.583.472c.19-.235.387-.464.591-.687l-.555-.505zM2.985 6.691l-.181.258v.001l-.003.004-.001.002a.014.014 0 0 0-.003.004l-.006.009-.001.001-.002.003-.002.002-.002.003-.002.003-.002.003-.001.002-.002.003-.004.006-.001.002L2.769 7l-.001.002-.003.004-.001.002-.003.005v.001l-.009.012-.004.005-.001.001a21.39 21.39 0 0 0-.292.447l.634.4c.161-.256.33-.506.505-.751l-.609-.437zM1.973 8.298l-.001.001-.001.002-.008.014-.003.005v.001c-.148.269-.288.543-.42.822l.677.322c.13-.273.267-.542.413-.806l-.657-.361zm-.815 1.715c-.042.103-.082.206-.121.31v.001l-.002.006-.001.002-.002.005-.001.002-.002.005-.002.005-.001.003-.001.004-.001.002-.001.004-.001.003-.001.004-.001.002-.006.016c-.064.172-.126.345-.185.52l.711.239c.096-.287.201-.57.314-.849l-.696-.284zm-.605 1.8c-.078.289-.148.581-.211.877v.001l-.001.006v.001l-.001.005v.001l-.003.016v.001l-.001.004v.002l-.001.005-.001.002-.001.003.734.152c.061-.297.132-.59.21-.88l-.724-.196zm-.385 1.859c-.03.208-.057.418-.079.628v.001l-.001.006-.001.006-.002.018v.024l-.002.021v.001l-.001.006v.001l-.001.007-.021.222.747.064c.026-.302.061-.602.104-.899l-.743-.106zm-.162 1.892L0 15.918V16.121c.001.131.004.263.008.393l.75-.024a15.91 15.91 0 0 1-.002-.906l-.75-.02zm.807 1.831l-.747.068c.012.136.026.272.042.407l.001.007v.001l.001.006v.001l.001.005v.002l.001.006v.002l.001.005.001.004v.017l.001.004v.001l.001.005v.001l.002.018.001.005v.001l.001.005v.001l.001.006.004.031.001.006.01.075.001.006.001.006.003.024v.001l.001.005v.001l.001.005v.002l.001.004v.001l.001.005v.002l.001.008v.019l.001.004v.002l.004.029.027.19.742-.112c-.044-.29-.08-.59-.107-.892zm.27 1.789l-.734.156c.066.311.141.619.225.923l.723-.199c-.08-.29-.151-.583-.214-.88zm.481 1.745l-.71.242c.048.14.097.279.149.416l.002.006.008.022v.001l.002.005v.001l.002.005v.001l.006.016v.001l.002.004.001.002.001.004.001.003c.002.001.002.002.002.003l.001.003a.014.014 0 0 1 .002.006l.001.003.001.003.001.003.001.003.002.004.001.002.002.005.001.002a.014.014 0 0 1 .002.006v.001l.002.006.001.002.002.005.001.002.002.005.001.001a.014.014 0 0 1 .002.006v.001l.003.007v.001a.014.014 0 0 1 .002.006l.001.001.002.006v.001a.014.014 0 0 1 .002.006v.001l.011.027v.001l.011.027c.032.083.065.165.099.247l.694-.284c-.113-.28-.219-.562-.317-.848zm.685 1.674l-.676.325a.21.21 0 0 0 .014.028l.002.005.001.002.002.004.001.003.002.003.003.006.001.001.002.005v.001l.002.005v.001c.076.156.154.311.235.464l.017.032c.05.095.102.189.154.283l.655-.365a18.414 18.414 0 0 1-.415-.803zm.881 1.581l-.632.403c.17.267.348.529.534.786l.608-.44a14.1 14.1 0 0 1-.51-.749zm1.061 1.466l-.58.475.113.137v.001a.018.018 0 0 1 .004.005l.001.001.004.005.001.001.005.006.001.002.003.003.002.003.002.003.002.003.002.002.003.003a.055.055 0 0 1 .007.009.008.008 0 0 0 .004.004.008.008 0 0 0 .004.004l.001.001c.126.149.255.296.386.441l.002.002.002.003.002.002.002.003.003.003.002.002.004.004.001.001.004.004.001.001.004.005.05.055.551-.508a17.552 17.552 0 0 1-.593-.686zm1.227 1.331l-.52.54.14.133.016.015.001.001.004.004.002.002.003.003.001.001.003.003.004.004.002.002.003.002.002.002.003.003.002.002.003.003.001.001.012.011.001.001c.164.152.33.301.5.446l.488-.57c-.23-.196-.453-.399-.671-.609zm1.376 1.178l-.453.598.24.179.002.001.003.003.001.001a.014.014 0 0 1 .004.003l.004.003.002.002.004.003.002.001.004.003.001.001a17.113 17.113 0 0 0 .504.352l.417-.623c-.249-.17-.495-.345-.735-.527zm1.504 1.006l-.379.647c.273.16.551.312.833.456l.34-.668a15.634 15.634 0 0 1-.794-.435zm1.613.821l-.3.687c.29.126.583.244.882.353l.258-.704a14.55 14.55 0 0 1-.84-.336zm1.699.623l-.216.718c.17.051.341.099.513.145h.002l.005.001.003.001.004.001.003.001.003.001.003.001h.001l.011.003h.001l.005.001h.001l.005.001h.001c.119.031.238.061.358.089l.172-.73a14.585 14.585 0 0 1-.875-.233zm1.761.415l-.128.739.179.03.006.001h.001a.17.17 0 0 1 .022.004h.003l.003.001.004.001h.003l.004.001h.003l.004.001h.003l.007.001h.001l.007.001h.001l.006.001h.001l.005.001h.002l.006.001.021.003h.001l.006.001.007.001h.001l.029.004.007.001.006.001h.001l.022.003.007.001h.001l.006.001h.001l.006.001h.001l.014.002h.001l.006.001h.001l.005.001h.002l.005.001h.002l.004.001h.003l.007.001h.002l.005.001h.003l.004.001.004.001h.003l.004.001h.003l.004.001h.002l.015.002h.002l.005.001h.002l.005.001h.001l.006.001h.001l.03.004h.001c.125.017.249.033.375.047l.019.002.084-.745c-.302-.03-.601-.073-.896-.125zm1.798.204l-.04.749c.257.014.515.021.775.023H16.077l-.004-.75h-.075c-.277 0-.554-.007-.829-.022zm2.713-.093c-.298.037-.598.065-.901.084l.047.748c.297-.019.591-.046.884-.081l.006-.001h.001l.005-.001h.002l.004-.001h.007l.007-.001h.001l.006-.001h.001l.006-.001h.001l.014-.002-.091-.743zm1.78-.327c-.292.072-.587.135-.885.19l.136.738.08-.015h.001l.005-.001.003-.001.003-.001.004-.001h.002c.279-.053.556-.114.83-.181l-.179-.728zm1.728-.538c-.281.106-.567.205-.856.294l.223.716c.231-.072.46-.149.687-.231h.001l.005-.002h.001l.005-.002.001-.001a.088.088 0 0 1 .015-.005h.001l.004-.001.003-.001.003-.001.003-.001.003-.001.005-.002h.001a.019.019 0 0 1 .007-.002.014.014 0 0 1 .006-.002h.001l.005-.002.001-.001.138-.051-.263-.704zm1.651-.739c-.267.139-.539.271-.815.394l.307.684c.16-.072.32-.146.477-.223l.005-.003.002-.001.012-.006.003-.002.002-.001.004-.002.001-.001.005-.002c.115-.056.229-.114.342-.173l-.345-.664zm1.552-.931c-.249.17-.503.333-.762.488l.386.643c.272-.163.538-.334.8-.512l-.424-.619zm1.432-1.108c-.227.198-.461.39-.699.575l.459.593.175-.137.005-.004.001-.001.005-.004.001-.001.011-.009.001-.001a.018.018 0 0 0 .005-.004l.001-.001a.008.008 0 0 0 .004-.004l.001-.001a.106.106 0 0 0 .011-.009l.001-.001.004-.004.001-.001.004-.003.002-.001.005-.004.011-.009.001-.001.004-.003.002-.001a.008.008 0 0 0 .004-.004l.001-.001a.022.022 0 0 0 .005-.004h.001a.018.018 0 0 1 .005-.004l.002-.001.004-.003.002-.002.004-.003.001-.001.011-.009.002-.001.004-.003.002-.002.004-.003.002-.001a.018.018 0 0 0 .005-.004l.001-.001a.022.022 0 0 0 .005-.004l.001-.001.004-.003.002-.002.003-.003.002-.001.004-.004.001-.001a.022.022 0 0 0 .005-.004l.001-.001.005-.004.001-.001.004-.004.001-.001a.018.018 0 0 1 .005-.004l.001-.001a.022.022 0 0 0 .005-.004l.005-.004.001-.001.004-.004.001-.001.005-.004a.106.106 0 0 0 .011-.009.022.022 0 0 0 .005-.004l.005-.004h.001l.011-.009.001-.001.005-.004.001-.001a.022.022 0 0 0 .005-.004l.017-.014.006-.005c.095-.079.189-.159.282-.241l-.492-.564zm1.291-1.269a16.13 16.13 0 0 1-.627.654l.526.535.168-.167.001-.001.004-.004.001-.001.004-.004.001-.001.005-.005.004-.004.002-.002.003-.003.002-.002.003-.003.002-.002.005-.005.002-.002.003-.003.003-.003.002-.002.002-.002.002-.002.003-.003.002-.002.005-.005.002-.002.002-.003.002-.003.002-.002.002-.002.003-.003.001-.001.011-.011.001-.001.003-.003.001-.001.003-.003.001-.002.003-.003.007-.007.002-.002.003-.003.002-.002.003-.003.002-.002.003-.003.001-.001.006-.006.002-.002.002-.002.003-.003.002-.002.002-.003.002-.002.002-.002.005-.005.002-.002.002-.002.002-.003.002-.002.003-.003.002-.002.004-.004.005-.005.001-.001.004-.004.001-.001.004-.004.001-.001c.104-.109.207-.219.308-.331l-.555-.506zm1.133-1.412c-.175.246-.357.488-.545.723l.585.469c.198-.247.389-.5.572-.758l-.612-.434zm.957-1.536c-.144.266-.297.526-.456.782l.636.397c.167-.269.327-.542.478-.821l-.658-.358zm.769-1.638a15.31 15.31 0 0 1-.36.831l.679.318c.134-.286.26-.576.377-.872l-.696-.277zm.567-1.718c-.078.293-.164.582-.258.867l.712.235c.092-.278.176-.56.253-.845v-.001l.001-.005.001-.002.001-.004.001-.003.001-.004.002-.007.001-.002.001-.004.001-.002.001-.005v-.001l.001-.005v-.001l.005-.019-.724-.192zm.358-1.774c-.042.3-.093.598-.153.892l.735.149c.034-.169.066-.339.094-.509v-.001l.001-.006v-.001l.001-.005v-.001l.001-.006v-.001l.001-.007v-.001l.001-.006v-.003l.001-.004.001-.003v-.003l.001-.004v-.002l.001-.005.005-.031c.018-.111.035-.223.051-.335l-.741-.107zm.146-1.804c-.007.304-.022.606-.046.905l.748.06c.008-.093.014-.186.02-.28v-.001-.006-.002-.007-.005-.001-.008-.007-.004-.003-.004-.003-.004-.003-.005-.002-.005-.001l.001-.024v-.001-.006-.005-.001-.006l.002-.032v-.006l.002-.038v-.006-.007l.002-.031v-.001-.006-.001-.005-.001-.007l.001-.017v-.002-.004-.003-.004-.003-.004-.004-.003-.005-.002-.007-.008-.006-.001-.008-.007c0-.001 0 0 0 0 .005-.109.008-.218.01-.328l-.74-.014zm.681-1.882l-.747.071c.029.299.048.6.06.904l.75-.027-.006-.147v-.005-.002-.004-.003-.004-.004-.003l-.001-.022c-.01-.198-.023-.396-.04-.592 0-.001 0 0 0 0l-.001-.007-.001-.007c0-.001 0 0 0 0l-.002-.022v-.001-.006-.002-.005-.002-.008-.004-.003-.004l-.001-.006v-.003-.004-.002-.004-.002-.007-.005-.001l-.003-.037a.027.027 0 0 1-.008-.02zm-.293-1.876l-.733.159c.064.294.119.59.166.89l.741-.115a15.427 15.427 0 0 0-.108-.614v-.001l-.001-.006v-.002l-.001-.005v-.002l-.003-.014v-.002l-.001-.004-.001-.003-.001-.003-.001-.004-.001-.003-.001-.004v-.002l-.005-.023a6.09 6.09 0 0 0-.05-.242zm-.514-1.828l-.709.246c.099.284.189.572.271.864l.722-.203a15.58 15.58 0 0 0-.26-.836v-.001l-.002-.006v-.001l-.002-.006v-.001l-.002-.006-.001-.002-.001-.004-.001-.004-.001-.002-.001-.004-.001-.002a1.108 1.108 0 0 0-.012-.032zm-.728-1.754l-.674.329c.132.271.256.546.372.825l.693-.288-.017-.041v-.001a.014.014 0 0 1-.002-.006v-.001a.017.017 0 0 1-.002-.005l-.001-.001-.003-.006v-.001l-.002-.005-.001-.002-.002-.004-.001-.003-.001-.003-.001-.003-.001-.003a.014.014 0 0 1-.002-.006l-.001-.003-.002-.004-.001-.002-.002-.004v-.001a15.007 15.007 0 0 0-.161-.366v-.001l-.002-.005v-.001l-.007-.015v-.001l-.002-.004-.001-.001-.002-.005-.001-.002-.002-.003-.001-.003-.001-.003-.003-.006-.001-.002-.002-.004-.001-.002-.002-.004-.001-.002-.002-.005-.001-.002-.006-.013v-.001l-.003-.006v-.001l-.003-.006-.144-.297zm-.932-1.654l-.63.406c.163.253.319.512.467.775l.653-.368-.002-.003-.001-.001-.002-.004-.001-.002-.002-.004-.003-.006-.003-.006-.001-.001-.003-.006c-.15-.265-.307-.525-.472-.78zm-1.121-1.533l-.578.478c.192.233.378.471.556.715l.605-.443a15.094 15.094 0 0 0-.221-.295l-.003-.004-.001-.001-.003-.004-.001-.001-.005-.006-.002-.003-.002-.002-.003-.003-.002-.002-.003-.004-.001-.001a11.357 11.357 0 0 0-.336-.424zm-1.294-1.39l-.518.543c.218.208.431.423.636.644l.55-.511-.071-.076-.001-.001-.01-.01v-.001l-.009-.01-.001-.001-.009-.01h-.002l-.009-.009-.001-.002-.008-.008-.002-.003a.065.065 0 0 1-.008-.009l-.002-.002-.007-.008-.003-.003-.007-.007-.004-.004-.006-.006a.022.022 0 0 1-.004-.005l-.006-.006-.005-.005-.006-.006-.005-.006-.004-.005-.006-.006-.005-.005-.006-.006-.003-.004-.007-.007-.004-.004-.008-.008-.003-.003-.007-.007-.001-.001-.011-.012-.001-.001-.008-.008-.001-.001-.012-.012-.008-.008-.021-.021-.021-.021-.021-.021-.02-.02-.001-.001a.189.189 0 0 1-.02-.02l-.002-.002-.007-.007-.005-.005-.006-.006-.004-.004-.006-.006-.005-.005-.005-.005-.005-.005-.005-.005-.006-.006-.004-.004-.007-.007-.004-.004-.007-.007-.003-.003-.008-.008-.003-.003-.008-.008-.001-.001-.009-.009-.001-.001-.01-.009-.001-.001-.161-.155zm-1.448-1.228l-.45.6c.242.181.478.37.708.565l.485-.572a10.679 10.679 0 0 0-.231-.192l-.001-.001-.003-.003-.002-.002-.004-.002-.004-.003-.002-.002-.004-.003-.002-.002-.004-.003-.001-.001-.004-.003-.001-.001-.011-.009a19.368 19.368 0 0 0-.469-.366zm-1.584-1.048l-.376.649c.261.152.518.311.769.477l.414-.625a15.1 15.1 0 0 0-.807-.501zm-1.696-.853l-.297.689c.278.12.551.247.82.382l.337-.67-.213-.105-.013-.006h-.001l-.005-.003-.001-.001-.005-.002-.001-.001-.006-.003h-.001l-.006-.003-.003-.002-.002-.001-.004-.002-.002-.001-.004-.002h-.001c-.13-.062-.26-.122-.391-.181l-.021-.009-.002-.001-.004-.002-.002-.001a.008.008 0 0 1-.004-.002l-.003-.001-.004-.002-.006-.003-.006-.003-.001-.001-.006-.003h-.001l-.006-.003a3.014 3.014 0 0 1-.135-.057zM20.531.651l-.212.719c.29.086.577.18.86.282l.255-.705a15.112 15.112 0 0 0-.903-.296zM18.68.224l-.125.74c.299.05.595.11.888.177l.169-.731c-.217-.05-.436-.096-.656-.137L18.95.272l-.024-.004h-.001L18.92.267h-.001l-.005-.001h-.002l-.005-.001-.003-.001-.005-.001-.005-.001h-.002l-.004-.001-.003-.001-.005-.001h-.002l-.005-.001h-.001l-.007-.001-.022-.004a5.093 5.093 0 0 0-.163-.029zM16.792.019l-.037.749c.303.015.605.038.903.071l.081-.746a17.273 17.273 0 0 0-.947-.074z"/><g id="Cat_5_"><path d="M18.52 24.493H13.992s.006-1.344 0-2.265c-3.099.667-3.964-1.699-3.964-1.699-.566-1.132-1.132-1.699-1.132-1.699-1.132-.673 0-.566 0-.566 1.132 0 1.699 1.132 1.699 1.132.994 1.687 2.762 1.416 3.397 1.132 0-.566.248-1.422.566-1.699-2.473-.279-4.532-1.699-4.532-4.53s.568-3.397 1.135-3.964c-.114-.279-.588-1.311.018-2.831 0 0 1.113 0 2.245 1.699.561-.561 2.265-.566 2.832-.566.565 0 2.269.005 2.83.566 1.132-1.699 2.248-1.699 2.248-1.699.605 1.52.132 2.552.017 2.831.566.566 1.132 1.132 1.132 3.964s-2.056 4.251-4.53 4.53c.319.276.566 1.251.566 1.699l.001 3.965z"/></g></g><metadata><rdf:RDF xmlns:rdf="http://www.w3.org/1999/02/22-rdf-syntax-ns#" xmlns:rdfs="http://www.w3.org/2000/01/rdf-schema#" xmlns:dc="http://purl.org/dc/elements/1.1/"><rdf:Description about="https://iconscout.com/legal#licenses" dc:title="github,social,logo" dc:description="github,social,logo" dc:publisher="Iconscout" dc:date="2017-09-15" dc:format="image/svg+xml" dc:language="en"><dc:creator><rdf:Bag><rdf:li>Epicflaticon by Alfredo</rdf:li></rdf:Bag></dc:creator></rdf:Description></rdf:RDF></metadata></svg>